
<svg version="1.0" xmlns="http://www.w3.org/2000/svg"
 width="200.000000pt" height="200.000000pt" viewBox="0 0 200.000000 200.000000"
 preserveAspectRatio="xMidYMid meet">

<g transform="translate(0.000000,200.000000) scale(0.100000,-0.100000)"
fill="#ffffff" stroke="none">
<path d="M0 1000 l0 -1000 1000 0 1000 0 0 1000 0 1000 -1000 0 -1000 0 0
-1000z m1182 748 c66 -31 148 -85 148 -98 0 -5 -15 -12 -33 -15 -27 -5 -47 1
-98 29 -165 90 -346 65 -486 -67 -33 -31 -66 -75 -86 -116 -30 -62 -32 -73
-32 -171 0 -133 22 -194 102 -280 96 -104 239 -155 365 -132 142 26 271 128
319 249 29 74 37 210 16 268 -13 37 -13 43 6 80 l20 40 18 -42 c104 -245 -19
-537 -268 -634 -86 -33 -221 -38 -310 -11 -133 41 -239 132 -296 254 -124 265
13 570 298 664 26 9 79 13 150 11 95 -2 118 -6 167 -29z m-132 -207 c0 -71 3
-142 6 -158 5 -28 0 -32 -171 -147 -97 -64 -179 -115 -182 -113 -2 3 -7 75
-10 160 l-6 155 174 116 c96 64 177 116 181 116 5 0 8 -58 8 -129z m324 -33
l-67 -133 -22 65 c-20 61 -25 67 -74 93 -29 16 -50 31 -47 34 7 8 236 71 259
72 14 1 4 -25 -49 -131z m-125 -256 l114 -50 -180 -120 -180 -120 -141 61
c-78 34 -142 64 -142 67 0 3 80 57 176 122 174 115 177 116 208 103 17 -8 82
-36 145 -63z m-449 -657 l0 -135 -30 0 -30 0 0 135 0 135 30 0 30 0 0 -135z
m250 105 c0 -28 -2 -30 -40 -30 l-40 0 0 -105 0 -105 -30 0 -30 0 0 105 0 105
-40 0 c-38 0 -40 2 -40 30 l0 30 110 0 110 0 0 -30z m189 21 c10 -6 10 -13 2
-29 -9 -17 -17 -19 -52 -15 -29 4 -44 2 -49 -8 -12 -19 -4 -28 44 -49 23 -10
50 -25 59 -35 19 -18 22 -66 7 -95 -14 -26 -73 -43 -126 -35 -48 7 -58 16 -50
43 5 16 14 18 60 14 86 -7 86 29 1 67 -68 30 -85 82 -40 126 19 20 34 25 77
25 29 0 59 -4 67 -9z"/>
<path d="M859 1520 l-146 -98 4 -124 c3 -68 5 -126 6 -130 1 -4 71 38 155 94
l152 101 0 52 c0 76 -12 205 -19 204 -3 0 -72 -45 -152 -99z m131 -59 c0 -16
-38 -51 -55 -51 -15 0 -2 51 17 64 25 17 38 13 38 -13z m-105 -87 c29 22 45
19 45 -7 0 -15 -11 -29 -30 -40 -29 -18 -30 -18 -30 2 0 28 -14 26 -66 -9
l-44 -31 0 49 c0 48 1 51 48 81 l47 31 5 -46 c5 -43 6 -44 25 -30z"/>
</g>
</svg>
